HIERARCHY
ROOT hip
{
  OFFSET 0 0 0
  CHANNELS 6 Xposition Yposition Zposition Zrotation Yrotation Xrotation
  JOINT abdomen
  {
    OFFSET 0 20.6881 -0.73152
    CHANNELS 3 Zrotation Xrotation Yrotation
    JOINT chest
    {
      OFFSET 0 11.7043 -0.48768
      CHANNELS 3 Zrotation Xrotation Yrotation
      JOINT neck
      {
        OFFSET 0 22.1894 -2.19456
        CHANNELS 3 Zrotation Xrotation Yrotation
        JOINT head
        {
          OFFSET -0.24384 7.07133 1.2192
          CHANNELS 3 Zrotation Xrotation Yrotation
          JOINT leftEye
          {
            OFFSET 4.14528 8.04674 8.04672
            CHANNELS 3 Zrotation Xrotation Yrotation
            End Site
            {
              OFFSET 1 0 0
            }
          }
          JOINT rightEye
          {
            OFFSET -3.6576 8.04674 8.04672
            CHANNELS 3 Zrotation Xrotation Yrotation
            End Site
            {
              OFFSET 1 0 0
            }
          }
        }
      }
      JOINT rCollar
      {
        OFFSET -2.68224 19.2634 -4.8768
        CHANNELS 3 Zrotation Xrotation Yrotation
        JOINT rShldr
        {
          OFFSET -8.77824 -1.95073 1.46304
          CHANNELS 3 Zrotation Xrotation Yrotation
          JOINT rForeArm
          {
            OFFSET -28.1742 -1.7115 0.48768
            CHANNELS 3 Zrotation Xrotation Yrotation
            JOINT rHand
            {
              OFFSET -22.5879 0.773209 7.07136
              CHANNELS 3 Zrotation Xrotation Yrotation
              JOINT rThumb1
              {
                OFFSET -1.2192 -0.487915 3.41376
                CHANNELS 3 Zrotation Xrotation Yrotation
                JOINT rThumb2
                {
                  OFFSET -3.37035 -0.52449 3.41376
                  CHANNELS 3 Zrotation Xrotation Yrotation
                  End Site
                  {
                    OFFSET -1.78271 -1.18214 1.43049
                  }
                }
              }
              JOINT rIndex1
              {
                OFFSET -7.75947 0.938293 5.60832
                CHANNELS 3 Zrotation Xrotation Yrotation
                JOINT rIndex2
                {
                  OFFSET -2.54057 -0.884171 1.56538
                  CHANNELS 3 Zrotation Xrotation Yrotation
                  End Site
                  {
                    OFFSET -1.62519 -0.234802 1.16502
                  }
                }
              }
              JOINT rMid1
              {
                OFFSET -8.24714 1.18213 3.41376
                CHANNELS 3 Zrotation Xrotation Yrotation
                JOINT rMid2
                {
                  OFFSET -3.10165 -0.590103 1.0647
                  CHANNELS 3 Zrotation Xrotation Yrotation
                  End Site
                  {
                    OFFSET -2.48547 -0.328903 0.83742
                  }
                }
              }
              JOINT rRing1
              {
                OFFSET -8.82822 0.546677 1.51678
                CHANNELS 3 Zrotation Xrotation Yrotation
                JOINT rRing2
                {
                  OFFSET -2.60934 -0.819778 -0.0198488
                  CHANNELS 3 Zrotation Xrotation Yrotation
                  End Site
                  {
                    OFFSET -2.33842 -0.294052 0.168128
                  }
                }
              }
              JOINT rPinky1
              {
                OFFSET -8.27202 -0.0477905 -0.4584
                CHANNELS 3 Zrotation Xrotation Yrotation
                JOINT rPinky2
                {
                  OFFSET -1.82734 -0.647385 -0.700984
                  CHANNELS 3 Zrotation Xrotation Yrotation
                  End Site
                  {
                    OFFSET -1.69225 -0.51767 -0.607171
                  }
                }
              }
            }
          }
        }
      }
      JOINT lCollar
      {
        OFFSET 2.68224 19.2634 -4.8768
        CHANNELS 3 Zrotation Xrotation Yrotation
        JOINT lShldr
        {
          OFFSET 8.77824 -1.95073 1.46304
          CHANNELS 3 Zrotation Xrotation Yrotation
          JOINT lForeArm
          {
            OFFSET 28.1742 -1.7115 0.48768
            CHANNELS 3 Zrotation Xrotation Yrotation
            JOINT lHand
            {
              OFFSET 22.5879 0.773209 7.07136
              CHANNELS 3 Zrotation Xrotation Yrotation
              JOINT lThumb1
              {
                OFFSET 1.2192 -0.487915 3.41376
                CHANNELS 3 Zrotation Xrotation Yrotation
                JOINT lThumb2
                {
                  OFFSET 3.37035 -0.52449 3.41376
                  CHANNELS 3 Zrotation Xrotation Yrotation
                  End Site
                  {
                    OFFSET 1.78271 -1.18214 1.43049
                  }
                }
              }
              JOINT lIndex1
              {
                OFFSET 7.75947 0.938293 5.60832
                CHANNELS 3 Zrotation Xrotation Yrotation
                JOINT lIndex2
                {
                  OFFSET 2.54057 -0.884171 1.56538
                  CHANNELS 3 Zrotation Xrotation Yrotation
                  End Site
                  {
                    OFFSET 1.62519 -0.234802 1.16502
                  }
                }
              }
              JOINT lMid1
              {
                OFFSET 8.24714 1.18213 3.41376
                CHANNELS 3 Zrotation Xrotation Yrotation
                JOINT lMid2
                {
                  OFFSET 3.10165 -0.590103 1.0647
                  CHANNELS 3 Zrotation Xrotation Yrotation
                  End Site
                  {
                    OFFSET 2.48547 -0.328903 0.83742
                  }
                }
              }
              JOINT lRing1
              {
                OFFSET 8.82822 0.546677 1.51678
                CHANNELS 3 Zrotation Xrotation Yrotation
                JOINT lRing2
                {
                  OFFSET 2.60934 -0.819778 -0.0198488
                  CHANNELS 3 Zrotation Xrotation Yrotation
                  End Site
                  {
                    OFFSET 2.33842 -0.294052 0.168128
                  }
                }
              }
              JOINT lPinky1
              {
                OFFSET 8.27202 -0.0477905 -0.4584
                CHANNELS 3 Zrotation Xrotation Yrotation
                JOINT lPinky2
                {
                  OFFSET 1.82734 -0.647385 -0.700984
                  CHANNELS 3 Zrotation Xrotation Yrotation
                  End Site
                  {
                    OFFSET 1.69225 -0.51767 -0.607171
                  }
                }
              }
            }
          }
        }
      }
    }
  }
  JOINT rButtock
  {
    OFFSET -8.77824 4.35084 1.2192
    CHANNELS 3 Zrotation Xrotation Yrotation
    JOINT rThigh
    {
      OFFSET 0 -1.70687 -2.19456
      CHANNELS 3 Zrotation Xrotation Yrotation
      JOINT rShin
      {
        OFFSET 0 -36.8199 0.73152
        CHANNELS 3 Zrotation Xrotation Yrotation
        JOINT rFoot
        {
          OFFSET 0.73152 -45.1104 -5.12064
          CHANNELS 3 Zrotation Xrotation Yrotation
          End Site
          {
            OFFSET -1.1221 -3.69964 12.103
          }
        }
      }
    }
  }
  JOINT lButtock
  {
    OFFSET 8.77824 4.35084 1.2192
    CHANNELS 3 Zrotation Xrotation Yrotation
    JOINT lThigh
    {
      OFFSET 0 -1.70687 -2.19456
      CHANNELS 3 Zrotation Xrotation Yrotation
      JOINT lShin
      {
        OFFSET 0 -36.8199 0.73152
        CHANNELS 3 Zrotation Xrotation Yrotation
        JOINT lFoot
        {
          OFFSET -0.73152 -45.1104 -5.12064
          CHANNELS 3 Zrotation Xrotation Yrotation
          End Site
          {
            OFFSET 1.1221 -3.69964 12.103
          }
        }
      }
    }
  }
}
MOTION
Frames:	6
Frame Time:	0.03333
0.0 0.0 0.0 0.0 0.0 0.0 0.0 0.0 0.0 0.0 0.0 0.0 0.0 0.0 0.0 0.0 0.0 0.0 0.0 0.0 0.0 0.0 0.0 0.0 0.0 0.0 0.0 0.0 0.0 0.0 0.0 0.0 0.0 0.0 0.0 0.0 0.0 0.0 0.0 0.0 0.0 0.0 0.0 0.0 0.0 0.0 0.0 0.0 0.0 0.0 0.0 0.0 0.0 0.0 0.0 0.0 0.0 0.0 0.0 0.0 0.0 0.0 0.0 0.0 0.0 0.0 0.0 0.0 0.0 0.0 0.0 0.0 0.0 0.0 0.0 0.0 0.0 0.0 0.0 0.0 0.0 0.0 0.0 0.0 0.0 0.0 0.0 0.0 0.0 0.0 0.0 0.0 0.0 0.0 0.0 0.0 0.0 0.0 0.0 0.0 0.0 0.0 0.0 0.0 0.0 0.0 0.0 0.0 0.0 0.0 0.0 0.0 0.0 0.0 0.0 0.0 0.0 0.0 0.0 0.0 0.0 0.0 0.0 0.0 0.0 0.0 0.0 0.0 0.0 0.0 0.0 0.0
0.093 62.28359999999999 -0.08639999999999999 179.976135 74.67443 178.688558 2.09441 2.087961 -81.932508 -8.437744 -8.694704 124.435892 8.241505 -4.782379 138.552447 -33.222935 38.432885 -125.479398 148.631338 21.610293 -68.407556 -6.449972 -0.266708 4.730705 60.694883 31.252633 16.251839 14.613533 0.875618 7.970646 -3.713465 -60.625237 142.176882 12.360751 -12.472171 -51.260952 -149.403347 7.283916 49.753629 135.509852 1.177356 -57.467153 -139.256832 -26.861075 175.920835 51.524932 14.172395 130.126407 98.779114 48.427064 -94.813079 48.159477 62.964175 -4.884129 86.400922 10.812178 -84.484344 -85.770344 77.227497 90.042165 -88.009559 14.176093 -76.289197 -29.802519 -36.004294 -34.271774 84.481925 -30.442094 -162.794355 174.810483 -45.861397 -167.953135 15.721703 -75.889364 -138.88847 -13.036992 -17.880231 44.163212 -165.876355 -1.022218 -70.71484 -25.482144 -49.420665 -30.360688 -145.329993 -65.991222 -78.788725 -32.912464 60.457218 -18.557784 75.094873 38.723346 -34.868692 122.136616 9.332011 -0.922525 80.184986 7.915778 109.49044 -163.592554 -0.92146 175.462035 1.011777 -0.469187 83.487268 -53.500477 80.420599 32.533559 2.087846 51.597772 -180.0 3.392742 52.64213 -0.0 -6.704506 -1.653357 -91.186385 -76.583622 25.583928 96.800555 -2.966089 -48.894493 0.272541 4.896686 50.794474 -6.309062 3.006358 5.919456 144.791277 -76.702665 26.087275 83.82301
0.11839999999999999 66.4241 0.3522 178.198369 -32.719823 -176.252432 -4.093719 10.827273 -50.820647 4.818143 -1.490373 43.64592 -0.144054 21.882586 96.778135 -45.894334 7.393647 -114.811153 43.743177 -0.296713 -0.739148 -3.760898 -0.395526 12.003003 5.923472 -0.213736 9.683035 56.780073 -2.209254 1.397269 -79.26934 39.343068 84.109359 22.516414 -42.189361 12.617721 -170.905518 -1.082265 99.138308 -172.205842 -7.616849 88.441697 -174.450761 -11.493398 129.944385 -4.053564 0.512437 -24.837392 -154.288105 -4.728907 146.532421 -163.698781 -66.220797 141.223862 75.21905 -85.831982 51.463686 0.053916 -0.19932 7.333358 -22.712174 -15.863177 -15.084816 -67.872239 57.455736 138.497583 147.926738 -15.017034 -169.749403 -144.86923 -2.835308 170.999697 86.441604 44.925678 -67.545461 -115.868323 -71.402779 -102.294336 176.904985 -40.75573 -103.492709 121.363823 -7.802378 -91.794363 59.852657 32.549224 -35.639259 -24.822577 38.309298 -15.780327 117.527633 57.048751 -104.485444 155.259965 -23.776446 -134.806098 133.216619 -33.366418 146.834757 -7.782999 -25.793091 39.058767 28.416894 40.753336 -21.960476 49.802026 -62.31883 58.52761 57.5955 32.196212 30.967727 -94.809208 2.608312 -134.961718 -43.383497 6.88672 101.715296 -143.265677 -19.709639 40.706992 49.563631 -7.450481 35.282831 -31.433059 4.846815 -84.255689 -55.300988 7.124177 -92.363178 118.51764 16.968202 173.96876
0.4706 74.0458 1.2772000000000001 -179.226347 -36.498362 -177.448866 -4.043966 8.660163 -110.682742 1.968599 5.049732 111.766936 5.392261 30.613496 124.47437 -40.602479 31.027095 -138.162465 15.797577 -5.355708 -37.259556 8.702144 -1.306279 -17.04223 5.584613 -18.277676 1.41937 60.825576 4.001702 -18.509122 101.479518 -39.254533 63.501547 -154.962105 53.446289 133.671415 -108.442121 34.470592 78.631195 -54.155071 16.25331 32.719619 -70.359701 57.240382 60.788758 175.172082 3.421138 113.709712 -7.233908 -5.623075 -6.355 -175.608807 -58.887633 125.073832 -142.532224 -2.340012 171.940144 -144.250246 -11.392268 174.451159 28.223304 75.53217 -4.933396 -164.720127 21.187135 -143.055471 154.984444 -6.94878 -160.52978 57.554246 -0.313939 2.022779 -19.689879 12.686395 63.096626 -174.816541 -4.492218 -147.144076 79.304705 46.602914 -38.873741 5.162656 -16.756406 -22.217321 101.998373 41.276671 -77.517207 -9.613493 13.252665 -3.888653 146.419347 33.219525 -110.484494 -6.963481 2.297791 -29.385062 78.947283 65.295698 -89.854565 153.980885 -1.223931 -173.549776 11.358708 -43.286447 -2.394411 144.640605 -28.88974 113.963206 -0.228382 1.017575 12.650399 -22.241944 -25.163538 81.143013 57.529867 -11.759823 118.056316 -40.053306 57.809981 148.557703 94.683654 40.626542 50.824857 -93.518818 26.260245 -79.801728 -44.603988 34.26817 173.04697 -21.7488 49.099228 -78.434475
1.2724 75.2275 1.2669 -178.743894 -36.629011 -178.561739 -3.463912 8.980187 -158.804473 0.144889 3.922598 164.846688 -5.164078 35.555262 -146.680775 30.831723 42.450909 103.372481 13.389309 -0.295828 -2.519893 7.314004 -1.264613 -19.593898 -77.764747 73.240161 82.411109 -4.943093 9.813984 72.134658 61.924316 76.945328 -126.902997 -179.763593 2.978861 149.685598 -80.326685 44.453886 52.090745 73.470562 -50.519175 22.213977 -135.069627 14.911719 127.132458 -163.076961 7.115677 125.380382 68.053693 -86.03162 42.873229 -161.730189 -57.63722 149.134926 5.146559 -27.889968 2.300283 -18.606588 30.767695 -4.888362 -8.702127 -10.149214 -10.010922 -164.893633 23.638995 -148.418856 -7.575345 -44.801876 3.250398 -78.51141 17.80787 37.640197 167.184961 -3.995784 -117.643051 -151.876303 -50.731317 -135.189281 83.296371 40.7972 -37.620295 10.672636 -10.403195 -39.417985 57.847129 33.689557 -35.803518 158.279883 -43.563779 -98.034375 -159.777243 -41.587292 -127.400344 155.987362 38.97295 -105.519414 9.04441 -3.345288 -8.311772 137.139806 -9.823575 176.751949 99.152572 -70.394773 92.669095 75.289688 81.527154 -79.099062 1.527046 1.047321 -1.991795 -9.791657 -31.406272 -180.0 8.625443 -52.490303 131.804728 -75.4017 -57.955802 22.989373 -168.581751 69.505102 -0.0 -174.965002 48.256115 -3.694414 -16.446889 46.631017 -64.515242 12.014016 54.230785 82.251343
2.1919 75.7315 1.098 -179.169099 -38.546082 -177.795273 -0.435833 10.409987 -63.888308 3.893523 -5.638562 68.883124 8.370417 30.344596 132.781272 -23.976577 35.757294 -165.214528 18.522582 2.306359 14.074709 -1.057117 0.065467 -7.087418 -38.055403 70.724111 43.19785 74.993373 -15.530701 63.728467 177.772691 11.407323 109.871121 173.193216 -6.753122 147.519019 -97.631915 43.326665 51.994084 -54.998403 -15.367227 57.245785 -3.549869 -12.482794 -8.176905 -81.622469 52.315583 72.220102 -166.644033 -16.983164 145.248695 -5.624049 44.482299 4.722526 -154.805028 -48.33452 178.446463 -170.79252 -14.983846 154.036702 -11.168551 -19.525223 -12.556879 -15.771826 -40.358797 -14.59919 14.262831 32.907641 -18.008507 -86.315691 -9.792866 -38.496246 -163.318455 -25.392601 -109.864379 -171.327723 -15.268617 -149.216337 16.523621 9.514894 -3.233092 25.602278 23.533256 -28.57474 1.478694 -12.249082 3.350031 -32.824837 -7.304368 14.86804 88.838198 54.392729 -74.542192 -29.649648 6.071087 -0.115645 70.859607 68.347851 -86.926991 2.60883 13.003053 -9.680791 153.482628 10.349765 145.48027 27.23327 84.603411 -75.862748 92.474716 33.659421 49.400844 -117.060472 25.847747 -180.0 -23.898342 -47.400429 -147.460506 -82.00674 56.411542 4.42732 2.930573 -0.930261 -0.0 8.330963 -23.536856 164.477903 29.709309 -45.643191 107.317683 112.453373 -36.239325 -172.502996
